<svg id="Layer_1" data-name="Layer 1" xmlns="http://www.w3.org/2000/svg" viewBox="0 0 101 27"><defs><style>.cls-1{fill:#e6500e;}.cls-2{fill:#f08431;}.cls-3{fill:#4d4c4c;}</style></defs><title>logo_dark</title><polygon class="cls-1" points="30.54 26.46 23.17 22.21 15.79 17.96 23.17 13.7 30.54 9.44 30.54 17.95 30.54 26.46"/><polygon class="cls-2" points="15.56 0.54 22.93 4.79 30.31 9.04 22.93 13.3 15.56 17.56 15.56 9.05 15.56 0.54"/><polygon class="cls-1" points="15.1 0.53 15.1 9.04 15.1 17.55 7.73 13.3 0.35 9.05 7.72 4.79 15.1 0.53"/><polygon class="cls-2" points="0.13 26.47 0.13 17.96 0.13 9.45 7.5 13.7 14.87 17.95 7.5 22.21 0.13 26.47"/><polygon class="cls-1" points="45.96 0.53 45.96 9.04 45.96 17.55 38.59 13.3 31.22 9.05 38.59 4.79 45.96 0.53"/><polygon class="cls-2" points="30.99 26.47 30.99 17.96 30.99 9.45 38.36 13.7 45.74 17.95 38.36 22.21 30.99 26.47"/><path class="cls-3" d="M72.79,25.47l-0.34-.08-0.34-.11-0.3-.15-0.3-.23-0.45-.53-0.19-.3-0.11-.34,0-.34,0-.38,0.08-.68,0-.38,0.08-.68L71,20.62l0.08-.26L71.18,20l0.11-.41,0.08-.3L71.48,19l0.08-.34,0.11-.34L71.74,18l0.11-.45L72,17l0.08-.34,0.11-.34L72.26,16l0.11-.34,0.08-.3,0.15-.68,0-.34,0.22-1,0-.34,0-.38,0-.34L72.75,12l-0.22-.22-0.3-.08-0.38,0-0.34.08-0.3.11-0.9.56-0.3.22-0.52.45-0.23.26L69,13.57l-0.23.26-0.22.3-0.19.3-0.19.26L68,15l-0.23.26-0.19.3-0.15.3-0.15.34-0.34.6-0.11.3-0.22.68-0.08.34-0.15.45L66.26,19l-0.11.38L66,19.84l-0.15.45-0.11.38-0.23.9,0,0.38-0.11.49-0.15.6-0.15.49L65,23.85l-0.08.3-0.11.34-0.15.3L64.42,25l-0.34.15-0.34.08-0.38,0-0.38,0H62.62l-0.34-.08L62,25l-0.19-.22,0-.34,0-.38,0.08-.45,0.11-.45,0.15-.38,0.11-.49,0.19-.6,0.15-.6,0.11-.49,0.08-.38,0.22-.9,0.23-1,0.11-.3,0.11-.34,0.11-.45,0.08-.45,0.11-.38,0.08-.3,0.23-.79,0.11-.45,0.11-.38L64.42,14l0.11-.6V12.78l0-.49L64.27,12l-0.38-.19-0.45-.07-0.34.07L62.66,12l-0.38.23L62,12.48l-0.53.45-0.34.3-0.34.34-0.22.26-0.19.26-0.15.3L60,14.73l-0.15.19-0.26.41-0.26.38L59.13,16l-0.26.41-0.49,1-0.15.34-0.11.34L58,18.45l-0.23.68-0.07.34-0.08.38-0.23,1-0.11.34-0.15.68-0.11.34L57,22.58,56.88,23l-0.07.34-0.08.26-0.08.34-0.11.34-0.11.38-0.26.34-0.53.26-0.64,0-0.6,0L53.8,25l-0.38-.38-0.08-.45,0.08-.34,0.15-.38,0.07-.22,0.11-.38,0.07-.34L54,22l0.11-.45,0.08-.34,0.22-.68,0.08-.3,0.11-.34,0.08-.34,0.11-.3,0.08-.34,0.11-.34L55,18.11l0.11-.45,0.07-.34,0.23-.68,0.11-.49,0.11-.45,0.11-.34L55.87,15l0-.34L56,14.36,56.09,14l0.15-.45,0.15-.49,0.15-.68,0.07-.3L57,10.42l0.11-.3,0.15-.34,0.26-.19,0.38-.11,0.38-.08L59,9.48l0.38,0.08,0.34,0.15L60,9.93l0.15,0.26,0,0.34L60,10.91l-0.11.34-0.08.34-0.11.34-0.08.38-0.11.34-0.15.68,0,0.22,0.15-.08,0.19-.34,0.22-.3,0.19-.3,0.23-.26,0.19-.3,0.22-.26L61,11.36l0.22-.22,0.19-.22,0.53-.45,0.6-.41,0.26-.19,0.3-.19,0.34-.15,0.3-.11,0.38-.11,0.38,0h0.64l0.34,0,0.34,0.08,0.3,0.11,0.3,0.15,0.26,0.19L66.9,10l0.22,0.26,0.3,0.6,0.11,0.3,0.11,0.34,0,0.34v0.34l0,0.45,0,0.49,0,0.26h0l0.15-.19,0.23-.3,0.22-.26,0.41-.53,0.26-.3L69,11.66l0.49-.56,0.23-.26L70,10.64l0.56-.45,0.3-.23,0.26-.19,0.3-.15,0.34-.15,0.34-.08,0.45-.07,0.64,0,0.26,0H73.8l0.34,0.08,0.45,0.11L75,9.63l0.34,0.22,0.22,0.23,0.19,0.3,0.15,0.3L76,11l0.11,0.34,0,0.34,0,0.3v0.68l0,0.34,0,0.38L76,14l-0.11.49-0.56,1.8-0.15.49L75,17.14,75,17.62,74.85,18l-0.11.38-0.15.45-0.11.45-0.11.38-0.19.9L74.1,21,74,21.45,74,22.09l0,0.6,0.11,0.45,0.22,0.22,0.38,0,0.3-.08,0.26-.15,0.3-.15,0.3-.22,0.26-.19L76.65,22l0.19-.26,0.45-.6L77.48,21l0.23-.3L79,18.56l0.15-.34,0.34-.68,0.11-.19L79.84,17l0.15-.3,0.34-.19,0.45,0.07L81.08,17v0.38l-0.15.34L80.75,18l-0.11.3-0.15.26-0.34.68-0.26.45-0.22.38-0.19.3-0.19.26-0.56.9-0.19.26-0.38.56-0.23.3-0.41.53L77,23.7,76.81,24l-0.22.22-0.53.45-0.3.19-0.9.45-0.34.11-0.3.08-0.38,0H73.09Z"/><path class="cls-3" d="M88.58,17v0.41l-0.11.34-0.3.6-0.34.56-0.19.34-0.15.3-0.22.34-0.11.23L87,20.47l-0.19.3L86.6,21l-0.22.3-0.19.26-0.38.6L85.13,23l-0.45.49-0.26.26L84.19,24l-0.26.23-0.82.64-0.26.19-0.34.15-0.34.11-0.3.07-0.68.15H80.55l-0.41,0-0.3-.11-0.34-.11-0.3-.19-0.26-.22-0.19-.26-0.19-.3L78.42,24l-0.08-.3-0.08-.34,0-.34V22.65L78.3,22l0.07-.34,0.11-.34,0.15-.68,0.11-.3L78.83,20l0.11-.34,0.11-.3,0.34-1,0-.3,0.07-.34,0.11-.34L79.69,17l0.07-.3L80,16l0.11-.45,0.11-.49,0.23-.68,0.07-.34,0.08-.26,0.08-.34,0.15-.38,0.11-.3,0.22-1,0.11-.34L81.38,11l0.15-.49,0.11-.34,0.15-.3L82,9.71l0.34-.15,0.3,0,0.38,0,0.68,0.08,0.6,0.22,0.19,0.26v0.34l-0.08.34-0.11.45-0.11.49L84,12.41l-0.08.3L83.82,13l-0.11.38-0.11.45L83.22,15l-0.08.34L83,15.82l-0.26.79-0.07.34-0.08.3-0.08.34-0.26.64-0.08.34-0.26.94-0.22.68-0.08.34L81.49,21l-0.11.6-0.08.64,0.08,0.56,0.3,0.41,0.41,0.11,0.34,0,0.34-.15L83,23l0.3-.22,1.24-1.24,0.23-.26L85,21l0.22-.3,0.38-.6,0.23-.26L86,19.57l0.19-.3,0.23-.34,0.15-.34,0.3-.64,0.45-.9,0.19-.3,0.34-.19,0.49,0.08Zm-6-11.52,0.19-.3L83,4.94l0.3-.19,0.38-.11L84,4.57h0.38l0.34,0.08,0.3,0.19,0.26,0.22,0.26,0.26,0.19,0.3L85.88,6l0,0.34V6.67L85.81,7l-0.19.3-0.23.3-0.26.22-0.3.23-0.34.15-0.38.08-0.34,0-0.38-.08-0.6-.38-0.22-.26-0.19-.3-0.08-.34,0-.34,0-.34,0.08-.38Z"/><path class="cls-3" d="M90.93,25.41H90.71l-0.41-.08L90,25.26l-0.3-.08-0.34-.11-0.9-.45-0.6-.38L87.55,24l-0.22-.23L86.65,23l-0.19-.26-0.3-.6-0.22-.68-0.08-.3-0.15-.68,0-.34,0-.38V19.45l0-.38,0.08-.45,0.11-.49L86,17.79l0.08-.34,0.11-.34,0.11-.3,0.19-.34,0.11-.22,0.22-.34,0.19-.3,0.19-.26,0.23-.22,0.68-.79,0.53-.45,0.3-.22,0.75-.6,0.53-.38,0.34-.19,0.6-.38L91.38,12l0.3-.19,0.22-.15,0-.15-0.41-.41-0.22-.26-0.23-.23-0.22-.26-0.19-.26-0.19-.3L90,8.79,89.81,8.3,89.69,8l-0.11-.49-0.11-.6V6l0-.45,0.08-.49,0.08-.34,0.11-.34,0.08-.3L90,3.76l0.15-.34L90.37,3l0.26-.41,0.22-.3,0.22-.22,0.26-.23,0.26-.19,0.6-.38,0.3-.15,0.26-.11,0.34-.15,0.38-.11L94,0.68l0.26,0,0.45-.08,0.34,0H95.4l0.75,0.07,0.23,0.08,0.71,0.08,0.34,0.11,0.34,0.08,0.9,0.45,0.26,0.19,0.3,0.19L99.49,2l0.23,0.23,0.22,0.26,0.19,0.26,0.23,0.34,0.11,0.19,0.15,0.38L100.73,4l0.08,0.34,0,0.45,0,0.49V5.64l0,0.34,0,0.3-0.08.34L100.61,7l-0.11.3-0.15.3-0.3.64-0.15.3-0.23.26L99.49,9l-0.71.71-0.34.3-0.38.38-0.56.49-0.3.22-0.53.38-0.3.19-0.19.19,0,0.19,0.19,0.19,0.53,0.45,0.53,0.41,0.26,0.26,0.23,0.26,0.22,0.23,0.68,0.79,0.41,0.56,0.19,0.26,0.15,0.34,0.15,0.3,0.11,0.34,0.11,0.3L100,17.08l0.08,0.34,0.11,0.3,0.08,0.68v0.38l-0.08.68-0.08.3-0.08.34-0.22.68-0.11.3-0.11.34-0.3.6-0.19.26-0.26.34-0.19.26-0.19.23-0.22.22L98,23.57l-0.26.19-0.3.22-0.26.23-0.34.19-0.3.15-0.26.11-0.3.11-0.38.11L95.4,25,95,25.11l-0.34.11-0.75.15-0.41,0-0.45.08-0.45,0H91.68l-0.34,0Zm-2.25-5.29,0.08,0.38,0.08,0.34L89,21.17l0.15,0.3,0.23,0.3,0.45,0.53,0.26,0.26,0.26,0.19,0.34,0.19L91,23l0.34,0.11,0.41,0.08h0.64l0.38,0,1-.11L94,23l0.68-.23,0.6-.3,0.26-.22,0.71-.71,0.22-.26,0.3-.6L97,20.35l0.11-.3,0.08-.34,0.11-1V18.32l-0.07-.68-0.08-.34-0.19-.41-0.08-.19L96.52,16l-0.19-.34-0.19-.26-0.22-.3-0.23-.26-0.22-.3-0.23-.26-0.82-.71-0.26-.19-0.3-.19-0.3,0-0.34.11-1.16.64-0.26.19-0.26.22-0.19.19-0.26.22-0.3.26-0.26.19-0.22.23-0.23.26L89.88,16l-0.38.6-0.15.3-0.38.9-0.11.34,0,0.34-0.08.3,0,0.34,0,0.38v0.68Zm3.6-13.66V6.8l0,0.34L92.4,7.48l0.11,0.34,0.15,0.3,0.11,0.34,0.15,0.3,0.15,0.34,0.19,0.26,0.19,0.3,0.45,0.53,0.26,0.15,0.41,0,0.38-.19,0.3-.22,0.26-.19,0.26-.23L96.22,9l0.3-.34,0.19-.23L97,8l0.34-.49,0.22-.38,0.19-.34,0.11-.3L98,6.2l0-.3,0.08-.34V5.22l0-.34L98,4.55l-0.11-.34-0.15-.26-0.23-.26L97,3.24l-0.3-.15L96.37,3l-0.45-.11-0.49-.08-0.38,0-0.34,0-0.34.08L94.08,3l-0.3.19-0.53.45L93,3.87l-0.3.6-0.11.3-0.11.34-0.08.3-0.08.34,0,0.38Z"/></svg>